:SAMPLES-PER-SECOND 30
:FULLY-SPECIFIED
:DEGREES
571
root  -15.3307 34.7307 -8.39354 -169.977 0.0798492 179.71
RightUpLeg  -9.46274 -10.0847 1.77179
RightLeg  5.56753 2.30439 0.0768725
RightFoot  3.84651 0.00333913 0.277148
RightToes  -23.6594 -0.10987 -0.214334
Spine  -2.19266 0.315156 -0.304894
Spine1  -4.46271 0.723717 0.026415
HEad  -65.5733 -1.15866 6.60436
LeftShoulder1  -1.94126e-019 -3.10601e-018 -2.51263e-017
LeftArm  -9.98904 24.594 -82.2778
LeftForeArm  31.3232 -17.7517 -2.90203
LeftHand  -0.484803 -2.65458 7.34702
RightShoulder  -4.96962e-017 0 -2.36833e-017
RightArm  -20.8061 -23.1004 79.3007
RightForeArm  54.5764 14.9099 1.16791
RightHand  -0.506295 -0.539661 -12.0276
LeftUpLeg  -9.49121 -5.94074 -0.897568
LeftLeg  6.70798 13.2806 0.69486
LeftFoot  2.98328 -0.0220085 0.858375
LeftToes  -14.8352 1.31424e-006 1.14295e-007
572
root  -15.3267 34.7307 -8.38821 -169.963 0.0742187 179.706
RightUpLeg  -9.44503 -10.1746 1.77991
RightLeg  5.48624 2.39376 0.0764106
RightFoot  3.87782 0.0030826 0.280813
RightToes  -23.7149 -0.10987 -0.214334
Spine  -2.22925 0.285617 -0.317133
Spine1  -4.53572 0.665221 0.00402098
HEad  -65.0047 -1.36847 6.57066
LeftShoulder1  -1.94126e-019 -3.10601e-018 -2.51263e-017
LeftArm  -10.0548 24.6501 -82.2476
LeftForeArm  31.2524 -17.6866 -2.89857
LeftHand  -0.484293 -2.64449 7.36625
RightShoulder  -4.96962e-017 0 -2.36833e-017
RightArm  -20.8869 -23.0462 79.3359
RightForeArm  54.6695 14.8325 1.18565
RightHand  -0.506164 -0.584859 -12.0257
LeftUpLeg  -9.46197 -5.88714 -0.896134
LeftLeg  6.60217 13.2107 0.667037
LeftFoot  3.02597 -0.0222849 0.862671
LeftToes  -14.8129 1.31424e-006 1.14295e-007
573
root  -15.3279 34.7306 -8.38993 -169.939 0.0453644 179.697
RightUpLeg  -9.43989 -10.2108 1.77519
RightLeg  5.4345 2.40668 0.0746388
RightFoot  3.90437 0.00289627 0.283475
RightToes  -23.745 -0.10987 -0.214334
Spine  -2.26951 0.265755 -0.326576
Spine1  -4.6163 0.625661 -0.0138877
HEad  -64.9733 -1.36975 6.62968
LeftShoulder1  -1.94126e-019 -3.10601e-018 -2.51263e-017
LeftArm  -10.2672 24.6626 -82.2522
LeftForeArm  31.2388 -17.5992 -2.89052
LeftHand  -0.482318 -2.5695 7.42049
RightShoulder  -4.96962e-017 0 -2.36833e-017
RightArm  -21.0333 -23.0852 79.3637
RightForeArm  54.5663 14.8246 1.18536
RightHand  -0.503733 -0.582662 -12.0939
LeftUpLeg  -9.46102 -5.86622 -0.90159
LeftLeg  6.54547 13.1677 0.651961
LeftFoot  3.05402 -0.0224722 0.865582
LeftToes  -14.8591 1.31424e-006 1.14295e-007
574
root  -15.3293 34.7305 -8.39273 -169.924 0.0635986 179.695
RightUpLeg  -9.4364 -10.2476 1.77528
RightLeg  5.40042 2.4611 0.0670471
RightFoot  3.91915 0.00282968 0.284427
RightToes  -23.745 -0.10987 -0.214334
Spine  -2.28926 0.267432 -0.327494
Spine1  -4.65584 0.629524 -0.0159136
HEad  -65.0398 -1.34509 6.52761
LeftShoulder1  -1.94126e-019 -3.10601e-018 -2.51263e-017
LeftArm  -10.3913 24.6586 -82.2692
LeftForeArm  31.2073 -17.5921 -2.89267
LeftHand  -0.482456 -2.52674 7.39032
RightShoulder  -4.96962e-017 0 -2.36833e-017
RightArm  -21.0662 -23.1047 79.3621
RightForeArm  54.5768 14.8494 1.17623
RightHand  -0.503539 -0.594324 -12.0979
LeftUpLeg  -9.46215 -5.83791 -0.906749
LeftLeg  6.52702 13.1508 0.646932
LeftFoot  3.05992 -0.0224851 0.865782
LeftToes  -14.9025 1.31424e-006 1.14295e-007
575
root  -15.332 34.7304 -8.40103 -169.883 0.105652 179.694
RightUpLeg  -9.44785 -10.1594 1.76304
RightLeg  5.36383 2.42048 0.0724962
RightFoot  3.9225 0.00282206 0.284535
RightToes  -23.8162 -0.10987 -0.214334
Spine  -2.31759 0.283497 -0.327998
Spine1  -4.71331 0.662751 -0.0180497
HEad  -65.5416 -1.2041 6.53833
LeftShoulder1  -1.94126e-019 -3.10601e-018 -2.51263e-017
LeftArm  -10.4953 24.6546 -82.3253
LeftForeArm  31.2254 -17.6299 -2.89781
LeftHand  -0.481909 -2.52128 7.41388
RightShoulder  -4.96962e-017 0 -2.36833e-017
RightArm  -21.0677 -23.1297 79.3449
RightForeArm  54.563 14.8585 1.17034
RightHand  -0.504085 -0.573252 -12.0852
LeftUpLeg  -9.47794 -5.88363 -0.917529
LeftLeg  6.51918 13.2332 0.649122
LeftFoot  3.03291 -0.0223818 0.864177
LeftToes  -14.8729 1.31424e-006 1.14295e-007
576
root  -15.3332 34.7303 -8.40847 -169.865 0.133575 179.693
RightUpLeg  -9.45445 -10.1545 1.75986
RightLeg  5.36141 2.43978 0.0696885
RightFoot  3.92345 0.00284814 0.284163
RightToes  -23.9196 -0.10987 -0.214334
Spine  -2.34007 0.295331 -0.328267
Spine1  -4.75878 0.687269 -0.0204004
HEad  -66.0383 -1.06709 6.58756
LeftShoulder1  -1.94126e-019 -3.10601e-018 -2.51263e-017
LeftArm  -10.4941 24.6599 -82.3654
LeftForeArm  31.331 -17.71 -2.90837
LeftHand  -0.483699 -2.54709 7.34088
RightShoulder  -4.96962e-017 0 -2.36833e-017
RightArm  -21.1005 -23.1272 79.3363
RightForeArm  54.6237 14.8098 1.17487
RightHand  -0.50198 -0.6419 -12.1356
LeftUpLeg  -9.48917 -5.86585 -0.921231
LeftLeg  6.53751 13.2449 0.653892
LeftFoot  3.01439 -0.0221391 0.860405
LeftToes  -14.9184 1.31424e-006 1.14295e-007
